<?xml version="1.0" encoding="UTF-8" standalone="no"?>
<!-- Created with Inkscape (http://www.inkscape.org/) -->

<svg
   width="850"
   height="270"
   viewBox="0 0 224.89583 71.437502"
   version="1.1"
   id="svg7860"
   inkscape:version="1.1.1 (3bf5ae0d25, 2021-09-20)"
   sodipodi:docname="banner.svg"
   xmlns:inkscape="http://www.inkscape.org/namespaces/inkscape"
   xmlns:sodipodi="http://sodipodi.sourceforge.net/DTD/sodipodi-0.dtd"
   xmlns="http://www.w3.org/2000/svg"
   xmlns:svg="http://www.w3.org/2000/svg">
  <sodipodi:namedview
     id="namedview7862"
     pagecolor="#ffffff"
     bordercolor="#666666"
     borderopacity="1.0"
     inkscape:pageshadow="2"
     inkscape:pageopacity="0.0"
     inkscape:pagecheckerboard="0"
     inkscape:document-units="px"
     showgrid="false"
     units="px"
     inkscape:zoom="1.5554293"
     inkscape:cx="325.95503"
     inkscape:cy="295.09538"
     inkscape:window-width="3840"
     inkscape:window-height="2054"
     inkscape:window-x="-11"
     inkscape:window-y="-11"
     inkscape:window-maximized="1"
     inkscape:current-layer="layer1" />
  <defs
     id="defs7857" />
  <g
     inkscape:label="Layer 1"
     inkscape:groupmode="layer"
     id="layer1">
    <g
       id="g4599"
       transform="translate(275.22772,-388.70358)"
       mask="none"
       inkscape:export-filename="D:\Proiecte\Github\test\banner.png"
       inkscape:export-xdpi="90"
       inkscape:export-ydpi="90">
      <path
         style="fill:#e0b836;fill-opacity:1;stroke-width:1.97295;stroke-linecap:round;stroke-linejoin:round"
         id="rect4548"
         width="224.89493"
         height="71.4375"
         x="-275.22681"
         y="388.70358"
         sodipodi:type="rect"
         d="m -275.22681,388.70358 h 224.894931 v 71.4375 H -275.22681 Z" />
      <path
         id="path4550"
         style="fill:#d6ac21;fill-opacity:1;stroke-width:1.29536;stroke-linecap:round;stroke-linejoin:round"
         inkscape:transform-center-y="-2.0055644"
         d="m -254.98971,413.90152 -7.05476,12.03351 h 4.79368 l -6.32794,10.79361 h 4.29957 l -7.36808,12.56758 h 23.31506 l -7.36809,-12.56758 h 4.29957 l -6.32793,-10.79361 h 4.79368 z"
         inkscape:transform-center-x="1.8024475e-06" />
      <path
         id="path4552"
         style="fill:#d6ac21;fill-opacity:1;stroke-width:0.763916;stroke-linecap:round;stroke-linejoin:round"
         inkscape:transform-center-y="-1.1827485"
         d="m -237.04059,425.45688 -4.16042,7.09656 h 2.82699 l -3.7318,6.36536 h 2.5356 l -4.3452,7.41151 h 13.74967 l -4.34521,-7.41151 h 2.5356 l -3.73179,-6.36536 h 2.82699 z" />
      <path
         id="path4554"
         style="fill:#d6ac21;fill-opacity:1;stroke-width:1.12589;stroke-linecap:round;stroke-linejoin:round"
         inkscape:transform-center-y="-1.7431888"
         d="m -244.82942,429.37681 -6.13184,10.45924 h 4.16656 l -5.5001,9.38157 h 3.73709 l -6.40417,10.92346 h 20.26492 l -6.40417,-10.92346 h 3.73709 l -5.5001,-9.38157 h 4.16656 z"
         inkscape:transform-center-x="1.3029241e-06" />
      <path
         id="path4556"
         style="fill:#d6ac21;fill-opacity:1;stroke-width:1.12589;stroke-linecap:round;stroke-linejoin:round"
         inkscape:transform-center-y="-1.7431888"
         d="m -265.09434,429.37681 -6.13184,10.45924 h 4.16655 l -5.50009,9.38157 h 3.73708 l -6.40417,10.92346 h 20.26493 l -6.40418,-10.92346 h 3.73709 l -5.5001,-9.38157 h 4.16656 z"
         inkscape:transform-center-x="1.2518765e-06" />
      <path
         id="path4558"
         style="fill:#d6ac21;fill-opacity:1;stroke-width:1.12589;stroke-linecap:round;stroke-linejoin:round"
         inkscape:transform-center-y="-1.7431888"
         d="m -224.56449,429.37681 -6.13184,10.45924 h 4.16656 l -5.5001,9.38157 h 3.73709 l -6.40418,10.92346 h 20.26493 l -6.40417,-10.92346 h 3.73709 l -5.5001,-9.38157 h 4.16656 z"
         inkscape:transform-center-x="1.5551879e-06" />
      <path
         id="path4560"
         style="fill:#d6ac21;fill-opacity:0.591241;stroke-width:1.12589;stroke-linecap:round;stroke-linejoin:round"
         inkscape:transform-center-y="-1.7431879"
         d="m -240.76887,405.61607 -6.13184,10.45924 h 4.16655 l -5.50009,9.38157 h 3.73709 l -6.40418,10.92346 h 20.26493 l -6.40418,-10.92346 h 3.73709 l -5.50009,-9.38157 h 4.16655 z"
         inkscape:transform-center-x="1.6413138e-06" />
      <path
         id="path4562"
         style="fill:#d6ac21;fill-opacity:0.591241;stroke-width:1.12589;stroke-linecap:round;stroke-linejoin:round"
         inkscape:transform-center-y="-1.7431875"
         d="m -265.09525,403.98347 -6.13184,10.45924 h 4.16656 l -5.5001,9.38157 h 3.73709 l -6.40418,10.92346 h 20.26493 l -6.40417,-10.92346 h 3.73709 l -5.5001,-9.38157 h 4.16656 z"
         inkscape:transform-center-x="1.4506703e-06" />
      <path
         id="path4564"
         style="fill:#d6ac21;fill-opacity:0.591241;stroke-width:2.48764;stroke-linecap:round;stroke-linejoin:round"
         inkscape:transform-center-y="-3.8515184"
         d="m -224.86242,392.16841 -13.5481,23.10936 h 9.20587 l -12.15229,20.72827 h 8.25698 l -14.14982,24.13504 h 44.77471 l -14.14982,-24.13504 h 8.25697 l -12.15228,-20.72827 h 9.20588 z"
         inkscape:transform-center-x="3.381587e-06" />
      <path
         id="path4566"
         style="fill:#d6ac21;fill-opacity:0.591241;stroke-width:2.18588;stroke-linecap:round;stroke-linejoin:round"
         inkscape:transform-center-y="-3.3843264"
         d="m -255.55506,400.41357 -11.90471,20.30617 h 8.08919 l -10.6782,18.21392 h 7.2554 l -12.43343,21.20742 h 39.34348 l -12.43343,-21.20742 h 7.2554 l -10.6782,-18.21392 h 8.08919 z"
         inkscape:transform-center-x="2.9985523e-06" />
      <path
         id="path4568"
         style="fill:#d6ac21;fill-opacity:1;stroke-width:1.29536;stroke-linecap:round;stroke-linejoin:round"
         inkscape:transform-center-y="-2.0055644"
         d="m -210.81288,413.90152 7.05476,12.03351 h -4.79368 l 6.32794,10.79361 h -4.29957 l 7.36809,12.56758 h -23.31507 l 7.36809,-12.56758 h -4.29957 l 6.32793,-10.79361 h -4.79368 z"
         inkscape:transform-center-x="-1.9108318e-06" />
      <path
         id="path4570"
         style="fill:#d6ac21;fill-opacity:1;stroke-width:1.12589;stroke-linecap:round;stroke-linejoin:round"
         inkscape:transform-center-y="-1.7431888"
         d="m -200.70824,429.37681 6.13183,10.45924 h -4.16655 l 5.5001,9.38157 h -3.73709 l 6.40417,10.92346 h -20.26493 l 6.40418,-10.92346 h -3.73709 l 5.5001,-9.38157 h -4.16656 z"
         inkscape:transform-center-x="-1.1614176e-06" />
      <path
         id="path4572"
         style="fill:#d6ac21;fill-opacity:0.591241;stroke-width:1.12589;stroke-linecap:round;stroke-linejoin:round"
         inkscape:transform-center-y="-1.7431875"
         d="m -200.70734,403.98347 6.13184,10.45924 h -4.16656 l 5.5001,9.38157 h -3.73709 l 6.40418,10.92346 h -20.26493 l 6.40417,-10.92346 h -3.73709 l 5.5001,-9.38157 h -4.16656 z"
         inkscape:transform-center-x="-1.5601522e-06" />
      <path
         id="path4574"
         style="fill:#d6ac21;fill-opacity:0.591241;stroke-width:0.496453;stroke-linecap:round;stroke-linejoin:round"
         inkscape:transform-center-y="-0.76864486"
         d="m -186.10796,446.57585 2.70378,4.61191 h -1.83721 l 2.42522,4.13672 h -1.64783 l 2.82386,4.8166 h -8.93564 l 2.82387,-4.8166 h -1.64784 l 2.42522,-4.13672 h -1.83721 z" />
      <path
         id="path4576"
         style="fill:#d6ac21;fill-opacity:0.591241;stroke-width:0.496453;stroke-linecap:round;stroke-linejoin:round"
         inkscape:transform-center-y="-0.7686431"
         d="m -176.38506,427.42594 2.70378,4.61192 h -1.83721 l 2.42522,4.13671 h -1.64784 l 2.82387,4.8166 h -8.93564 l 2.82387,-4.8166 h -1.64784 l 2.42522,-4.13671 h -1.83721 z"
         inkscape:transform-center-x="2.4091021e-06" />
      <path
         id="path4578"
         style="fill:#272727;fill-opacity:1;stroke-width:0.496453;stroke-linecap:round;stroke-linejoin:round"
         inkscape:transform-center-y="-0.76864001"
         d="m -190.75804,421.76423 2.70378,4.61191 h -1.83721 l 2.42522,4.13672 h -1.64784 l 2.82387,4.8166 h -8.93564 l 2.82386,-4.8166 h -1.64783 l 2.42522,-4.13672 h -1.83721 z" />
      <path
         id="path4580"
         style="fill:#d6ac21;fill-opacity:0.434307;stroke-width:1.74125;stroke-linecap:round;stroke-linejoin:round"
         inkscape:transform-center-y="-2.6959176"
         d="m -182.43017,412.56281 9.48315,16.17568 h -6.44375 l 8.50612,14.50899 h -5.77957 l 9.90435,16.8936 h -31.34058 l 9.90433,-16.8936 h -5.77957 l 8.50613,-14.50899 h -6.44376 z" />
      <path
         id="path7518"
         style="fill:#d6ac21;fill-opacity:1;stroke-width:1.29536;stroke-linecap:round;stroke-linejoin:round"
         inkscape:transform-center-y="-2.0055644"
         d="m -92.55916,413.90152 7.05476,12.03351 h -4.79368 l 6.32794,10.79361 h -4.29957 l 7.36808,12.56758 h -23.31506 l 7.36809,-12.56758 h -4.29957 l 6.32793,-10.79361 h -4.79368 z"
         inkscape:transform-center-x="-1.8024475e-06" />
      <path
         id="path7520"
         style="fill:#d6ac21;fill-opacity:1;stroke-width:0.763916;stroke-linecap:round;stroke-linejoin:round"
         inkscape:transform-center-y="-1.1827485"
         d="m -110.50828,425.45688 4.16042,7.09656 h -2.82699 l 3.7318,6.36536 h -2.5356 l 4.3452,7.41151 h -13.74967 l 4.34521,-7.41151 h -2.5356 l 3.73179,-6.36536 h -2.82699 z" />
      <path
         id="path7522"
         style="fill:#d6ac21;fill-opacity:1;stroke-width:1.12589;stroke-linecap:round;stroke-linejoin:round"
         inkscape:transform-center-y="-1.7431888"
         d="m -102.71945,429.37681 6.13184,10.45924 h -4.16656 l 5.5001,9.38157 h -3.73709 l 6.40417,10.92346 h -20.26492 l 6.40417,-10.92346 h -3.73709 l 5.5001,-9.38157 h -4.16656 z"
         inkscape:transform-center-x="-1.302924e-06" />
      <path
         id="path7524"
         style="fill:#d6ac21;fill-opacity:1;stroke-width:1.12589;stroke-linecap:round;stroke-linejoin:round"
         inkscape:transform-center-y="-1.7431888"
         d="m -82.45453,429.37681 6.13184,10.45924 h -4.16655 l 5.50009,9.38157 h -3.73708 l 6.40417,10.92346 h -20.26493 l 6.40418,-10.92346 h -3.73709 l 5.5001,-9.38157 h -4.16656 z"
         inkscape:transform-center-x="-1.2518764e-06" />
      <path
         id="path7526"
         style="fill:#d6ac21;fill-opacity:1;stroke-width:1.12589;stroke-linecap:round;stroke-linejoin:round"
         inkscape:transform-center-y="-1.7431888"
         d="m -122.98438,429.37681 6.13184,10.45924 h -4.16656 l 5.5001,9.38157 h -3.73709 l 6.40418,10.92346 h -20.26493 l 6.40417,-10.92346 h -3.73709 l 5.5001,-9.38157 h -4.16656 z"
         inkscape:transform-center-x="-1.5551878e-06" />
      <path
         id="path7528"
         style="fill:#d6ac21;fill-opacity:0.591241;stroke-width:1.12589;stroke-linecap:round;stroke-linejoin:round"
         inkscape:transform-center-y="-1.7431879"
         d="m -106.78,405.61607 6.13184,10.45924 h -4.16655 l 5.50009,9.38157 h -3.73709 l 6.40418,10.92346 h -20.26493 l 6.40418,-10.92346 h -3.73709 l 5.50009,-9.38157 h -4.16655 z"
         inkscape:transform-center-x="-1.6413138e-06" />
      <path
         id="path7530"
         style="fill:#d6ac21;fill-opacity:0.591241;stroke-width:1.12589;stroke-linecap:round;stroke-linejoin:round"
         inkscape:transform-center-y="-1.7431875"
         d="m -82.45362,403.98347 6.13184,10.45924 h -4.16656 l 5.5001,9.38157 h -3.73709 l 6.40418,10.92346 h -20.26493 l 6.40417,-10.92346 H -89.919 l 5.5001,-9.38157 h -4.16656 z"
         inkscape:transform-center-x="-1.4506703e-06" />
      <path
         id="path7532"
         style="fill:#d6ac21;fill-opacity:0.591241;stroke-width:2.18588;stroke-linecap:round;stroke-linejoin:round"
         inkscape:transform-center-y="-3.3843264"
         d="m -91.99381,400.41357 11.90471,20.30617 h -8.08919 l 10.6782,18.21392 h -7.2554 l 12.43343,21.20742 h -39.34348 l 12.43343,-21.20742 h -7.2554 l 10.6782,-18.21392 h -8.08919 z"
         inkscape:transform-center-x="-2.9985522e-06" />
      <path
         id="path7534"
         style="fill:#d6ac21;fill-opacity:1;stroke-width:1.29536;stroke-linecap:round;stroke-linejoin:round"
         inkscape:transform-center-y="-2.0055644"
         d="m -136.73599,413.90152 -7.05476,12.03351 h 4.79368 l -6.32794,10.79361 h 4.29957 l -7.36809,12.56758 h 23.31507 l -7.36809,-12.56758 h 4.29957 l -6.32793,-10.79361 h 4.79368 z"
         inkscape:transform-center-x="1.9108319e-06" />
      <path
         id="path7536"
         style="fill:#d6ac21;fill-opacity:1;stroke-width:1.12589;stroke-linecap:round;stroke-linejoin:round"
         inkscape:transform-center-y="-1.7431888"
         d="m -146.84063,429.37681 -6.13183,10.45924 h 4.16655 l -5.5001,9.38157 h 3.73709 l -6.40417,10.92346 h 20.26493 l -6.40418,-10.92346 h 3.73709 l -5.5001,-9.38157 h 4.16656 z"
         inkscape:transform-center-x="1.1614176e-06" />
      <path
         id="path7538"
         style="fill:#d6ac21;fill-opacity:0.591241;stroke-width:1.12589;stroke-linecap:round;stroke-linejoin:round"
         inkscape:transform-center-y="-1.7431875"
         d="m -146.84153,403.98347 -6.13184,10.45924 h 4.16656 l -5.5001,9.38157 h 3.73709 l -6.40418,10.92346 h 20.26493 l -6.40417,-10.92346 h 3.73709 l -5.5001,-9.38157 h 4.16656 z"
         inkscape:transform-center-x="1.5601522e-06" />
      <path
         id="path7540"
         style="fill:#d6ac21;fill-opacity:0.591241;stroke-width:0.496453;stroke-linecap:round;stroke-linejoin:round"
         inkscape:transform-center-y="-0.76864486"
         d="m -161.44091,446.57585 -2.70378,4.61191 h 1.83721 l -2.42522,4.13672 h 1.64783 l -2.82386,4.8166 h 8.93564 l -2.82387,-4.8166 h 1.64784 l -2.42522,-4.13672 h 1.83721 z" />
      <path
         id="path7542"
         style="fill:#d6ac21;fill-opacity:0.591241;stroke-width:1.7219;stroke-linecap:round;stroke-linejoin:round"
         inkscape:transform-center-y="-2.6659617"
         d="m -65.828076,413.0914 -9.377797,15.996 h 6.372184 l -8.411639,14.34777 h 5.715372 l -9.794317,16.70591 h 30.992394 l -9.794317,-16.70591 h 5.715372 l -8.411639,-14.34777 h 6.372184 z"
         inkscape:transform-center-x="-8.409833e-06" />
      <path
         id="path7544"
         style="fill:#d6ac21;fill-opacity:0.434307;stroke-width:1.74125;stroke-linecap:round;stroke-linejoin:round"
         inkscape:transform-center-y="-2.6959176"
         d="m -165.1187,412.56281 -9.48315,16.17568 h 6.44375 l -8.50612,14.50899 h 5.77957 l -9.90435,16.8936 h 31.34058 l -9.90433,-16.8936 h 5.77957 l -8.50613,-14.50899 h 6.44376 z" />
    </g>
  </g>
</svg>
